# xmcd CD database file
#
# Track frame offsets:
#	150
#	20370
#	55180
#	93280
#	112100
#	160020
#
# Disc length: 2486 seconds
#
# Revision: 0
# Processed by: cddbd v1.5.2PL0 Copyright (c) Steve Scherf et al.
# Submitted via: CDex 1.51
#
DISCID=4009b406
DTITLE=Jeremy Steig - Legwork
DYEAR=1900
DGENRE=Jazz
TTITLE0=Howlin For Judy
TTITLE1=Permutations
TTITLE2=Hot-Head
TTITLE3=Alias (A Li' as)
TTITLE4=Nardis
TTITLE5=Piece of Freedom
EXTD=
EXTT0=
EXTT1=
EXTT2=
EXTT3=
EXTT4=
EXTT5=
PLAYORDER=
